<svg width="26" height="32" fill="none" xmlns="http://www.w3.org/2000/svg"><path d="M23.075 3.43L14.61.244c-.878-.325-2.31-.325-3.187 0L2.956 3.43C1.324 4.048 0 5.966 0 7.714V20.24c0 1.253.816 2.908 1.816 3.65l8.467 6.357c1.493 1.128 3.94 1.128 5.434 0l8.466-6.357C25.184 23.132 26 21.493 26 20.24V7.714c.015-1.748-1.309-3.666-2.925-4.284zm-4.71 8.66l-6.62 6.65a1.14 1.14 0 01-.815.341 1.14 1.14 0 01-.816-.34L7.65 16.235a1.17 1.17 0 010-1.639 1.157 1.157 0 011.631 0l1.663 1.67 5.803-5.83a1.158 1.158 0 011.632 0 1.175 1.175 0 01-.015 1.655z" fill="#CCAA82"/></svg>