<svg width="40" height="40" fill="none" xmlns="http://www.w3.org/2000/svg"><path d="M29.09 17.273a1.818 1.818 0 10.001-3.636 1.818 1.818 0 000 3.636z" fill="url(#paint0_linear_102_404)"/><path d="M10.91 17.273a1.818 1.818 0 100-3.636 1.818 1.818 0 000 3.636z" fill="url(#paint1_linear_102_404)"/><path d="M37.273 2.728H2.727C1.182 2.728 0 3.909 0 5.455v20C0 27 1.182 28.182 2.727 28.182h34.546C38.818 28.182 40 27 40 25.455v-20c0-1.546-1.182-2.727-2.727-2.727zm.909 22.727c0 .545-.364.909-.91.909H2.728c-.545 0-.909-.364-.909-.91v-20c0-.545.364-.908.91-.908h34.545c.545 0 .909.363.909.909v20z" fill="url(#paint2_linear_102_404)"/><path d="M39.09 29.09c-.545 0-.908.364-.908.91 0 .545-.364.909-.91.909H2.728c-.545 0-.909-.364-.909-.91 0-.544-.363-.908-.909-.908-.545 0-.909.363-.909.909 0 1.545 1.182 2.727 2.727 2.727h34.546C38.818 32.727 40 31.545 40 30c0-.546-.364-.91-.91-.91z" fill="url(#paint3_linear_102_404)"/><path d="M39.09 33.637c-.545 0-.908.363-.908.909 0 .545-.364.909-.91.909H2.728c-.545 0-.909-.364-.909-.91 0-.545-.363-.908-.909-.908-.545 0-.909.363-.909.909 0 1.545 1.182 2.727 2.727 2.727h34.546c1.545 0 2.727-1.182 2.727-2.727 0-.546-.364-.91-.91-.91z" fill="url(#paint4_linear_102_404)"/><path d="M35.455 8.181c-.546 0-.91-.363-.91-.909 0-.545-.363-.909-.909-.909H6.364c-.546 0-.91.364-.91.91 0 .545-.363.908-.908.908-.546 0-.91.364-.91.91v12.727c0 .545.364.909.91.909.545 0 .909.363.909.909 0 .545.363.909.909.909h27.272c.546 0 .91-.364.91-.91 0-.545.363-.908.909-.908.545 0 .909-.364.909-.91V9.092c0-.546-.364-.91-.91-.91zm-1 12.91c-.728.272-1.273.818-1.546 1.636H7.091c-.273-.818-.91-1.364-1.636-1.637V9.818c.818-.273 1.363-.91 1.636-1.637h25.727c.273.819.91 1.364 1.637 1.637V21.09z" fill="url(#paint5_linear_102_404)"/><path d="M20 10c-3 0-5.454 2.454-5.454 5.454 0 3 2.454 5.455 5.454 5.455 3 0 5.454-2.454 5.454-5.454C25.454 12.454 23 10 20 10zm0 9.09c-2 0-3.636-1.635-3.636-3.635 0-2 1.636-3.637 3.636-3.637s3.636 1.637 3.636 3.637S22 19.09 20 19.09z" fill="url(#paint6_linear_102_404)"/><defs><linearGradient id="paint0_linear_102_404" x1="29.091" y1="13.637" x2="29.091" y2="17.273" gradientUnits="userSpaceOnUse"><stop stop-color="#173885"/><stop offset="1" stop-color="#597ED5"/></linearGradient><linearGradient id="paint1_linear_102_404" x1="10.909" y1="13.637" x2="10.909" y2="17.273" gradientUnits="userSpaceOnUse"><stop stop-color="#173885"/><stop offset="1" stop-color="#597ED5"/></linearGradient><linearGradient id="paint2_linear_102_404" x1="20" y1="2.728" x2="20" y2="28.182" gradientUnits="userSpaceOnUse"><stop stop-color="#173885"/><stop offset="1" stop-color="#597ED5"/></linearGradient><linearGradient id="paint3_linear_102_404" x1="20" y1="29.091" x2="20" y2="32.727" gradientUnits="userSpaceOnUse"><stop stop-color="#173885"/><stop offset="1" stop-color="#597ED5"/></linearGradient><linearGradient id="paint4_linear_102_404" x1="20" y1="33.637" x2="20" y2="37.273" gradientUnits="userSpaceOnUse"><stop stop-color="#173885"/><stop offset="1" stop-color="#597ED5"/></linearGradient><linearGradient id="paint5_linear_102_404" x1="20" y1="6.363" x2="20" y2="24.545" gradientUnits="userSpaceOnUse"><stop stop-color="#173885"/><stop offset="1" stop-color="#597ED5"/></linearGradient><linearGradient id="paint6_linear_102_404" x1="20" y1="10" x2="20" y2="20.909" gradientUnits="userSpaceOnUse"><stop stop-color="#173885"/><stop offset="1" stop-color="#597ED5"/></linearGradient></defs></svg>