<svg width="38" height="32" fill="none" xmlns="http://www.w3.org/2000/svg"><path d="M37.281 16.825L32.031 3.7l-.007-.014a1.317 1.317 0 00-.079-.161l-.008-.012a1.3 1.3 0 00-.093-.135l-.022-.028a1.319 1.319 0 00-.117-.124l-.023-.02a1.314 1.314 0 00-.113-.09l-.034-.023a1.337 1.337 0 00-.143-.082c-.011-.006-.023-.01-.034-.015a1.302 1.302 0 00-.135-.054l-.032-.01a1.32 1.32 0 00-.168-.04l-.032-.004a1.308 1.308 0 00-.163-.012l-.015-.001h-.006a1.29 1.29 0 00-.176.014l-.043.007-.06.01-10.215 2.27V1.562a1.313 1.313 0 00-2.625 0V5.76L6.902 8.156c-.027.006-.053.015-.08.022l-.034.01a1.303 1.303 0 00-.16.063l-.028.014a1.3 1.3 0 00-.134.077l-.022.014a1.307 1.307 0 00-.136.107l-.023.022a1.329 1.329 0 00-.103.11l-.02.024c-.036.044-.068.09-.097.14l-.02.033c-.028.05-.053.1-.075.153l-.002.005-.002.004-.002.006L.719 22.075c-.062.155-.094.32-.094.488 0 3.824 4.025 5.25 6.563 5.25 2.537 0 6.562-1.426 6.562-5.25 0-.168-.032-.333-.094-.488L8.98 10.384l8.707-1.935v20.676h-2.625a1.313 1.313 0 000 2.625h7.876a1.313 1.313 0 000-2.625h-2.625V7.865l8.358-1.857-4.327 10.817c-.062.155-.094.32-.094.488 0 3.824 4.025 5.25 6.563 5.25 2.537 0 6.562-1.426 6.562-5.25 0-.168-.032-.333-.094-.488zm-26.257 5.738H3.35l3.837-9.591 3.836 9.59zm15.952-5.25l3.837-9.591 3.836 9.59h-7.673z" fill="url(#paint0_linear_102_403)"/><defs><linearGradient id="paint0_linear_102_403" x1="19" y1=".25" x2="19" y2="31.75" gradientUnits="userSpaceOnUse"><stop stop-color="#173885"/><stop offset="1" stop-color="#597ED5"/></linearGradient></defs></svg>