<svg width="35" height="38" fill="none" xmlns="http://www.w3.org/2000/svg"><path d="M11.688 19.043l3.874 3.816 7.75-7.633M33 19.044c0 8.512-10.579 14.68-14.257 16.567-.398.204-.597.306-.873.36a2.232 2.232 0 01-.74 0c-.276-.054-.475-.156-.873-.36C12.58 33.722 2 27.555 2 19.043v-7.217c0-1.526 0-2.289.253-2.944a3.816 3.816 0 011.06-1.506c.534-.464 1.26-.732 2.71-1.267l10.389-3.837c.402-.149.604-.223.81-.252.185-.027.371-.027.555 0 .207.03.409.103.811.252L28.977 6.11c1.45.535 2.176.803 2.71 1.267.472.41.836.926 1.06 1.506C33 9.537 33 10.3 33 11.826v7.217z" stroke="url(#paint0_linear_102_395)" stroke-width="3" stroke-linecap="round" stroke-linejoin="round"/><defs><linearGradient id="paint0_linear_102_395" x1="17.5" y1="2" x2="17.5" y2="36" gradientUnits="userSpaceOnUse"><stop stop-color="#173885"/><stop offset="1" stop-color="#597ED5"/></linearGradient></defs></svg>