<svg width="35" height="35" fill="none" xmlns="http://www.w3.org/2000/svg"><path fill-rule="evenodd" clip-rule="evenodd" d="M19 2.5a2 2 0 10-4 0v15.48l-7.654-6.96a2 2 0 10-2.692 2.96l11 10a2 2 0 002.692 0l11-10a2 2 0 10-2.692-2.96L19 17.98V2.5zM3.21 20.908A2 2 0 000 22.5v7.734a4.036 4.036 0 004.454 4.004c2.848-.294 7.92-.738 12.546-.738 4.772 0 10.496.472 13.59.766a4.025 4.025 0 004.41-4V22.5a2 2 0 00-4 0v7.768l-27.79-9.36zm0 0l27.784 9.366a.037.037 0 01-.014.01h-.012C27.852 29.988 21.97 29.5 17 29.5c-4.832 0-10.068.46-12.956.76h-.018A.052.052 0 014 30.238V22.5a1.996 1.996 0 00-.79-1.592z" fill="#333"/></svg>