<svg width="18" height="21" fill="none" xmlns="http://www.w3.org/2000/svg"><path fill-rule="evenodd" clip-rule="evenodd" d="M8.823 20.351l.34-.442-.34.442zm.68 0l.003-.001.005-.004.019-.012.069-.046a22.239 22.239 0 001.147-.842 24.72 24.72 0 002.7-2.46c1.952-2.072 3.98-5.03 3.98-8.41 0-2.022-.87-3.961-2.42-5.391C13.459 1.755 11.357.95 9.164.95c-2.192 0-4.294.804-5.843 2.235-1.55 1.43-2.42 3.369-2.42 5.39 0 3.382 2.028 6.34 3.98 8.412a24.714 24.714 0 003.593 3.126c.109.076.194.135.254.175l.069.046.019.012.005.004.002.001a.635.635 0 00.68 0zm-.34-.442l.34.442-.34-.442zm2.951-11.375c0 1.495-1.321 2.708-2.95 2.708-1.63 0-2.951-1.213-2.951-2.708 0-1.496 1.32-2.709 2.95-2.709 1.63 0 2.951 1.213 2.951 2.709z" fill="#BAB391"/></svg>