<svg width="221" height="76" fill="none" xmlns="http://www.w3.org/2000/svg"><path d="M87.96 2.164c-17.85 0-32.654 12.57-36.172 29.267a24.032 24.032 0 015.269 4.634c3.886 4.597 5.882 10.466 5.882 16.727 0 3.874-.71 7.717-2.255 11.263 6.746 7.35 16.453 11.943 27.277 11.943a37.04 37.04 0 0032.942-19.927H98.496c-2.985 1.91-6.59 2.944-10.535 2.944-10.669 0-18.907-7.7-18.907-19.937 0-12.13 8.238-19.936 18.907-19.936h.053V14.22h-.038a24.822 24.822 0 00-17.129 6.809l-.002-.002a.737.737 0 11-.956-1.116 26.289 26.289 0 0118.087-7.162h.038V8.206h-.046a30.813 30.813 0 00-21.272 8.459l-.001-.002a.737.737 0 11-.949-1.126c5.79-5.455 13.6-8.8 22.222-8.8h.046V2.162h-.053v.001zm36.084 4.555h-33.09V2.164h35.594l-.006.012h8.174l-.939 1.612h-8.024l-1.709 2.93v.001zm-7.219 12.374H90.954v-4.86h28.708l-.008.013h8.024l-.942 1.612h-8.023l-1.888 3.237v-.002zm3.715-6.366H90.953V8.214h32.218l-.007.013h8.023l-.939 1.612h-8.023l-1.685 2.888zm21.112-3.04l1.405 9.406h4.577l-2.995-16.927h-3.354l-9.875 16.927h4.576l5.666-9.406zm15.874-1.016l.597-2.637h7.484l.877-3.87h-11.6l-3.833 16.927h11.599l.883-3.894h-7.484l.597-2.635h6.83l.882-3.895h-6.83l-.002.004zm19.099-2.637h4.335l.877-3.87H169.05l-.876 3.87h4.335l-2.959 13.059h4.117l2.958-13.059zM89.944 21.366h-.725V.002h.725v21.364zm-38.76 21.516a36.811 36.811 0 002.886 11.023c.019-.368.028-.738.028-1.109 0-3.696-.987-7.133-2.914-9.913v-.002z" fill="url(#paint0_linear_65_15)"/><path d="M54.927 13.66V3.008H6.654v16.876h22.394l-16.9 17.299 8.344 6.328c1.69-.739 5.282-2.742 9.507-2.742 8.134 0 11.619 3.691 11.619 9.283 0 4.746-4.225 8.965-10.88 8.965h-.846c-4.857 0-9.61-.949-18.167-6.328L.002 63.448C8.24 70.62 18.169 76 30.316 76h.74c19.857-.21 27.463-11.498 27.463-23.206 0-10.125-6.126-18.88-17.745-20.99a15.937 15.937 0 00-3.063-.316L54.927 13.66z" fill="url(#paint1_linear_65_15)"/><path d="M88.145 38.96c.337.07.635.246.896.527.258.28.39.638.39 1.072 0 .49-.137.938-.411 1.345a3.892 3.892 0 01-1.063 1.051 5.288 5.288 0 01-1.464.684 5.668 5.668 0 01-1.631.241c-.884 0-1.554-.252-2.01-.757-.456-.505-.684-1.198-.684-2.081 0-.646.133-1.303.399-1.977a6.661 6.661 0 011.084-1.828 6.092 6.092 0 011.568-1.346 3.598 3.598 0 011.873-.526c.884 0 1.551.112 2 .336.449.224.673.63.673 1.219 0 .448-.165.844-.494 1.188a2.952 2.952 0 01-1.126.746v.107zm-4.694 1.199c0 .659.038 1.188.116 1.587.078.399.194.704.348.915.154.211.336.352.547.422.211.07.457.104.736.104a3.378 3.378 0 002.033-.672c.273-.21.494-.46.663-.746a1.86 1.86 0 00.253-.957c0-.448-.091-.775-.274-.978-.182-.203-.477-.306-.884-.306-.266 0-.603.046-1.011.137-.407.091-.83.179-1.263.262l-1.262.232h-.002zm3.409-4.1c-.42 0-.818.096-1.19.283a3.52 3.52 0 00-1 .767c-.295.323-.54.697-.738 1.124-.196.428-.329.88-.4 1.356l2.864-.63c1.39-.308 2.084-.94 2.084-1.893 0-.35-.14-.606-.422-.767-.282-.162-.68-.241-1.2-.241l.002.002zm12.484-.692c.238 0 .487.017.747.053.259.034.498.083.715.146.217.063.398.15.536.264.141.112.211.237.211.378 0 .463-.161.693-.483.693-.294 0-.534-.133-.714-.4-.196-.293-.61-.44-1.242-.44a2.45 2.45 0 00-1.432.44c-.422.291-.78.663-1.074 1.112a5.44 5.44 0 00-.684 1.505 5.8 5.8 0 00-.242 1.616c0 .323.032.634.095.932.063.3.166.564.306.788.141.22.323.399.548.534.224.133.498.2.821.2.183 0 .379-.035.59-.105.21-.07.418-.162.621-.274a2.93 2.93 0 00.56-.398c.167-.154.294-.316.378-.485.21-.393.399-.588.568-.588.112 0 .169.091.169.273 0 .224-.081.465-.241.726-.162.26-.386.5-.673.729a4.055 4.055 0 01-1.021.579 3.439 3.439 0 01-1.284.239 2.591 2.591 0 01-1.918-.83 2.734 2.734 0 01-.557-.904 3.11 3.11 0 01-.196-1.103c0-.729.14-1.435.424-2.122a6.5 6.5 0 011.116-1.82 5.58 5.58 0 011.576-1.26c.59-.315 1.187-.473 1.79-.473l-.01-.005zm6.231 0c.224 0 .336.098.336.294 0 .154-.032.326-.095.514-.063.19-.144.403-.241.642l-1.873 4.792a2.14 2.14 0 00-.19.841c0 .308.148.464.441.464.393 0 .776-.095 1.146-.283a4.53 4.53 0 001.042-.737c.324-.302.607-.634.852-.999.245-.364.439-.715.58-1.051l1.39-3.532c.099-.24.179-.402.241-.494.063-.09.187-.186.369-.282.225-.113.394-.168.506-.168.154 0 .232.055.232.167 0 .057-.084.316-.253.779l-2.188 5.781a51.315 51.315 0 01-1.001 2.512c-.33.764-.684 1.43-1.062 1.998-.379.567-.807 1.01-1.284 1.325-.477.315-1.032.473-1.663.473-.17 0-.383-.034-.643-.106a3.517 3.517 0 01-.759-.306 2.76 2.76 0 01-.642-.473c-.183-.182-.274-.378-.274-.589 0-.393.182-.588.547-.588.126 0 .246.076.358.231.112.154.236.32.369.494.133.175.291.34.473.494.183.154.415.231.694.231a2.08 2.08 0 001.179-.336c.337-.224.648-.564.937-1.02.287-.455.561-1.03.822-1.723.26-.693.536-1.517.831-2.47h-.021a5.25 5.25 0 01-.873.704 6.144 6.144 0 01-.979.515 5.65 5.65 0 01-1 .315 4.54 4.54 0 01-.938.106c-.49 0-.737-.294-.737-.883 0-.35.091-.77.273-1.26l1.685-4.478c.084-.182.125-.322.125-.42 0-.126-.057-.19-.167-.19a.556.556 0 00-.199.064 13.61 13.61 0 00-.527.252.421.421 0 01-.158.063c-.154 0-.232-.078-.232-.232 0-.112.101-.249.304-.41.204-.161.443-.319.715-.473a5.65 5.65 0 01.842-.389c.288-.104.523-.158.706-.158l.004-.002zm11.913 1.26a5.84 5.84 0 00.095-.535c.035-.245.067-.498.096-.754a14.161 14.161 0 00.083-1.247c0-.543-.066-.974-.199-1.297-.134-.32-.295-.568-.485-.743-.19-.17-.39-.283-.599-.332a2.39 2.39 0 00-.527-.074c-.407 0-.722.051-.947.158-.224.106-.41.224-.557.357a9.448 9.448 0 00-.378.357c-.105.106-.249.157-.432.157-.07 0-.116-.03-.137-.095a.522.522 0 01-.032-.157c0-.336.253-.667.759-.988.505-.322 1.228-.484 2.167-.484.266 0 .557.046.873.137.315.091.603.245.863.463.259.217.477.507.652.872.175.364.264.82.264 1.367 0 .588-.062 1.247-.19 1.976-.127.73-.302 1.468-.526 2.218a15.91 15.91 0 01-.833 2.185 11.029 11.029 0 01-1.095 1.882 5.9 5.9 0 01-1.305 1.325c-.469.336-.964.505-1.485.505-1.669 0-2.504-.932-2.504-2.797 0-.546.122-1.139.369-1.777a7.035 7.035 0 011-1.777 5.84 5.84 0 011.485-1.367 3.316 3.316 0 011.822-.547c.308 0 .601.091.872.274.274.182.544.427.81.736h.021v.002zm-.19.693a2.976 2.976 0 00-.652-.693 1.364 1.364 0 00-.863-.315c-.308 0-.66.105-1.053.315a3.812 3.812 0 00-1.105.925c-.344.406-.635.911-.873 1.513-.239.602-.357 1.29-.357 2.06 0 .672.144 1.185.431 1.534.287.352.614.526.98.526.422 0 .821-.178 1.199-.535.379-.357.727-.817 1.042-1.377a9.74 9.74 0 00.801-1.893c.216-.7.368-1.388.452-2.06h-.002zm3.915 4.183c.126 1.122.694 1.682 1.706 1.682.926 0 1.718-.307 2.378-.924.224-.225.365-.337.422-.337.154 0 .232.084.232.253 0 .125-.091.281-.274.463-.8.828-1.831 1.24-3.095 1.24-.884 0-1.553-.252-2.01-.757-.456-.505-.684-1.198-.684-2.081 0-.688.133-1.37.399-2.049a6.45 6.45 0 011.084-1.829 5.65 5.65 0 011.568-1.302 3.776 3.776 0 011.873-.494c1.278 0 1.915.576 1.915 1.724 0 .56-.158 1.104-.474 1.63a5.26 5.26 0 01-1.252 1.408 6.61 6.61 0 01-1.769.999 5.605 5.605 0 01-2.021.378l.002-.004zm-.063-.568c.59 0 1.151-.087 1.685-.264a4.62 4.62 0 001.411-.736c.407-.316.732-.69.979-1.124.245-.435.369-.92.369-1.45 0-.87-.337-1.303-1.01-1.303a2.47 2.47 0 00-1.432.43 3.865 3.865 0 00-1.074 1.115 5.7 5.7 0 00-.684 1.513 5.78 5.78 0 00-.242 1.63v.19h-.002zm11.6-5.57c.561 0 1.033.182 1.411.546.378.365.569.954.569 1.766 0 .646-.101 1.272-.307 1.882-.203.61-.572 1.293-1.104 2.05a8.63 8.63 0 01-.831 1.04c-.274.288-.55.523-.831.705a3.13 3.13 0 01-.875.399 3.65 3.65 0 01-.979.127c-.323 0-.623-.066-.905-.2a2.394 2.394 0 01-.747-.556 2.662 2.662 0 01-.515-.85 3.062 3.062 0 01-.19-1.103c0-.448.045-.961.137-1.534a16.726 16.726 0 011.021-3.626c.252-.624.547-1.21.884-1.755.532-.898 1.133-1.637 1.8-2.218.666-.58 1.337-.871 2.01-.871.182 0 .361.024.536.074.175.05.358.1.548.157.19.055.391.108.61.158.217.05.452.074.705.074.267 0 .459-.034.578-.104a.92.92 0 00.274-.232c.063-.084.116-.162.158-.232.042-.07.12-.106.232-.106.042 0 .084.008.125.02.042.016.063.05.063.105 0 .281-.059.513-.179.693a1.32 1.32 0 01-.452.431 2.195 2.195 0 01-.569.232 2.18 2.18 0 01-.526.074c-.253 0-.495-.025-.727-.074a8.69 8.69 0 01-.663-.167c-.211-.063-.415-.12-.61-.167a2.252 2.252 0 00-.548-.074c-.337 0-.627.058-.873.178-.245.12-.523.382-.831.788a6.04 6.04 0 00-.452.756 7.647 7.647 0 00-.378.915c-.12.344-.232.729-.337 1.156-.105.427-.221.915-.348 1.462a5.575 5.575 0 011.378-1.388 3.006 3.006 0 011.738-.526v-.005zm-4.021 5.675c0 .195.021.421.063.672.042.252.12.488.232.704.112.217.258.399.443.547.182.148.42.22.715.22.365 0 .764-.148 1.199-.44.436-.294.871-.784 1.307-1.472.167-.28.306-.575.41-.883.105-.307.183-.62.232-.936.05-.315.08-.626.095-.936.014-.307.021-.596.021-.862 0-.56-.106-.966-.315-1.219a.998.998 0 00-.801-.377c-.35 0-.738.136-1.158.41-.422.273-.81.638-1.169 1.093a6.56 6.56 0 00-.905 1.588 4.976 4.976 0 00-.369 1.89zm10.609-5.675c.225 0 .337.098.337.294 0 .154-.032.323-.095.505a7.82 7.82 0 01-.264.651l-.989 2.438c.154-.112.323-.207.506-.283.182-.076.414-.116.694-.116h1.116c.281 0 .536-.041.768-.125.232-.084.382-.203.452-.357l.78-2.06c.099-.24.169-.393.211-.463a.62.62 0 01.19-.19c.099-.07.215-.137.348-.2a.88.88 0 01.369-.094c.141 0 .211.07.211.21 0 .057-.084.316-.253.779l-2 5.297c-.084.21-.154.399-.211.568a1.54 1.54 0 00-.084.315c0 .167.07.252.211.252a.688.688 0 00.285-.074l.316-.148c.105-.049.2-.098.283-.148a.457.457 0 01.17-.074c.14 0 .211.07.211.211 0 .125-.095.258-.284.399-.19.14-.41.266-.663.378a5.39 5.39 0 01-.768.273c-.261.07-.461.104-.601.104-.266 0-.4-.14-.4-.42 0-.195.018-.368.054-.514.034-.148.087-.306.158-.473l1.116-2.963c-.379.252-.829.377-1.347.377h-.946c-.352 0-.643.063-.873.19-.232.127-.377.26-.432.4l-.988 2.458a2.726 2.726 0 01-.411.663c-.162.19-.382.282-.664.282-.127 0-.203-.057-.232-.167 0-.083.076-.343.232-.778l1.727-4.709c.266-.7.399-1.107.399-1.219 0-.127-.057-.19-.169-.19a.493.493 0 00-.19.063l-.253.127a3.435 3.435 0 00-.232.125.368.368 0 01-.148.063c-.154 0-.232-.078-.232-.231 0-.1.095-.228.283-.39a4.52 4.52 0 01.694-.473c.274-.153.559-.286.852-.398.294-.112.547-.167.758-.167l-.002.002zm10.19 0c.42 0 .804.074 1.146.22.344.148.635.355.873.62.239.267.424.576.557.925.133.352.2.73.2 1.136 0 .659-.126 1.321-.379 1.986a6.347 6.347 0 01-1.042 1.798c-.441.533-.971.97-1.589 1.314a4.046 4.046 0 01-2 .514c-.407 0-.776-.074-1.107-.22a2.493 2.493 0 01-.842-.61 2.911 2.911 0 01-.548-.903 3.033 3.033 0 01-.2-1.103c0-.743.145-1.455.432-2.135a6.618 6.618 0 011.126-1.807c.464-.526.99-.946 1.58-1.26.589-.316 1.186-.474 1.789-.474l.004-.001zm-.225.693c-.523 0-.996.14-1.42.42a4.06 4.06 0 00-1.095 1.081c-.306.441-.536.94-.698 1.493a5.751 5.751 0 00-.245 1.65c0 .336.032.651.095.945.063.295.173.557.319.788.149.232.333.414.552.547.22.133.49.2.817.2.552 0 1.038-.149 1.464-.441a3.95 3.95 0 001.074-1.124c.291-.456.512-.963.666-1.525.158-.56.236-1.107.236-1.64 0-.294-.033-.585-.095-.872a2.466 2.466 0 00-.308-.767 1.72 1.72 0 00-.552-.547 1.501 1.501 0 00-.808-.21l-.002.002zm7.088-.693c.225 0 .337.098.337.294 0 .14-.032.308-.095.505a8.35 8.35 0 01-.242.651l-1.872 4.792c-.126.337-.191.617-.191.842 0 .307.147.463.442.463.294 0 .614-.067.958-.2.344-.132.673-.307.988-.526.316-.216.598-.468.843-.757a3.29 3.29 0 00.557-.894l1.664-4.225a4.93 4.93 0 01.116-.294.975.975 0 01.115-.21.574.574 0 01.158-.138c.078-.049.158-.098.242-.148a1.24 1.24 0 01.264-.116.775.775 0 01.221-.041c.154 0 .232.055.232.167 0 .057-.084.315-.253.778l-2 5.297c-.099.266-.172.47-.221.61-.049.14-.074.232-.074.273 0 .17.07.253.211.253a.723.723 0 00.306-.074l.306-.146c.099-.05.186-.099.262-.148.077-.05.137-.074.179-.074.141 0 .211.07.211.21 0 .126-.091.26-.274.399a3.15 3.15 0 01-.652.378 5.286 5.286 0 01-.768.273c-.26.07-.468.107-.622.107-.266 0-.401-.14-.401-.422 0-.196.017-.364.053-.505a4.25 4.25 0 01.158-.484 5.078 5.078 0 01-.737.61 5.488 5.488 0 01-.947.504c-.744.337-1.445.505-2.105.505-.477 0-.723-.294-.738-.882 0-.35.091-.771.274-1.261l1.685-4.477c.083-.224.125-.365.125-.42 0-.127-.057-.19-.167-.19a.56.56 0 00-.2.063l-.274.127a4.532 4.532 0 00-.253.125.438.438 0 01-.157.063c-.154 0-.232-.078-.232-.231 0-.126.102-.27.306-.431.203-.162.445-.316.726-.464.281-.146.565-.273.852-.378.287-.104.515-.157.684-.157v.004zm4.022-3.532c.112 0 .169.099.169.294 0 .154-.063.336-.19.547-.126.21-.291.407-.495.589a2.959 2.959 0 01-.705.463c-.266.125-.548.19-.842.19-.196 0-.4-.05-.611-.148-.211-.099-.315-.203-.315-.315 0-.1.161-.308.485-.63.349-.35.555-.527.61-.527.042 0 .08.021.116.063.034.042.076.091.125.148.05.057.113.105.191.148a.636.636 0 00.306.063.972.972 0 00.557-.179.844.844 0 00.348-.493c.042-.14.125-.211.253-.211l-.002-.002zm9.62 9.06c.365.1.691.274.98.526.287.253.494.56.621.925a.836.836 0 01.274-.137.922.922 0 01.169-.032c.071 0 .12.034.149.107.028.07.041.146.041.231 0 .057-.038.125-.116.21a.713.713 0 01-.327.19c.042.212.063.456.063.737 0 .646-.129 1.305-.39 1.977a6.7 6.7 0 01-1.053 1.828 5.686 5.686 0 01-1.557 1.345 3.73 3.73 0 01-1.926.526c-1.278 0-1.915-.576-1.915-1.724 0-.464.112-.916.337-1.356.224-.44.523-.85.895-1.23a6.057 6.057 0 011.284-.988 7.015 7.015 0 011.485-.651l1.473-.44c-.182-.954-.738-1.43-1.664-1.43-.391 0-.709.034-.946.106a3.36 3.36 0 01-.4.105c-.028 0-.049-.063-.062-.19a2.943 2.943 0 01-.021-.316c0-.07.057-.112.167-.125a9.252 9.252 0 001.536-.43c.506-.19.955-.44 1.348-.747.394-.308.713-.672.959-1.094.245-.421.368-.903.368-1.45 0-.87-.336-1.303-1.011-1.303-.491 0-.901.108-1.232.325-.329.216-.572.53-.726.936a2.694 2.694 0 01-.265.515c-.104.161-.234.24-.39.24-.083 0-.199-.05-.347-.157a.524.524 0 01-.221-.452c0-.14.057-.294.167-.463.154-.24.356-.456.601-.651.245-.196.515-.369.81-.515.295-.146.601-.262.917-.347.315-.084.621-.126.916-.126 1.278 0 1.915.576 1.915 1.724 0 .337-.078.69-.232 1.062a4.856 4.856 0 01-.622 1.072 5.659 5.659 0 01-.926.957 5.254 5.254 0 01-1.126.716v-.005zm.548 2.628c-.589.112-1.15.27-1.685.473-.532.203-1 .461-1.399.779a3.794 3.794 0 00-.958 1.103c-.24.42-.358.903-.358 1.45 0 .87.337 1.303 1.012 1.303.547 0 1.032-.145 1.452-.431.421-.287.78-.66 1.073-1.115.294-.456.519-.96.673-1.513a6.053 6.053 0 00.232-1.63c0-.14-.014-.28-.042-.42v.001zm8.168-.82c-.785.784-1.776 1.177-2.968 1.177-1.557 0-2.337-.638-2.337-1.914 0-.307.067-.64.2-.998a5.82 5.82 0 01.515-1.04c.211-.337.457-.64.736-.916a3.27 3.27 0 01.863-.62 1.91 1.91 0 01.202-1.449 2.69 2.69 0 01.715-.81 3.729 3.729 0 011.042-.556 3.73 3.73 0 011.262-.21c1.643 0 2.462.799 2.462 2.396 0 .237-.083.588-.253 1.052l-1.178 3.216c-.113.307-.168.476-.168.505 0 .167.084.252.253.252a.643.643 0 00.221-.074l.327-.148a3.83 3.83 0 00.306-.148.498.498 0 01.2-.074c.112 0 .167.07.167.211 0 .125-.088.256-.264.39a3.82 3.82 0 01-.622.377c-.238.12-.481.213-.726.283-.246.07-.432.104-.559.104-.324 0-.483-.153-.483-.463 0-.154.028-.336.083-.547l.004.004zm-.232-4.898a2.81 2.81 0 00-1.432.389 4.645 4.645 0 00-1.188.97 5.09 5.09 0 00-.821 1.268c-.204.456-.306.876-.306 1.269 0 .488.074.858.22 1.107.148.252.489.377 1.021.377.506 0 .993-.133 1.462-.398a4.4 4.4 0 001.232-1.024 5.42 5.42 0 00.843-1.384c.211-.501.315-.991.315-1.464 0-.738-.448-1.11-1.346-1.11zm-1.768-.042a4.058 4.058 0 012.042-.526c.365 0 .663.057.895.167.232.112.453.287.664.526.028-.112.049-.21.063-.294.015-.084.021-.162.021-.232 0-.42-.149-.76-.441-1.02-.295-.26-.681-.389-1.158-.389-.59 0-1.078.175-1.463.526-.385.351-.593.763-.621 1.24l-.002.002z" fill="url(#paint2_linear_65_15)"/><path d="M185.381 35.365c.323 0 .483.153.483.463 0 .195-.112.606-.337 1.223l-1.578 4.407c-.141.377-.211.658-.211.844 0 .154.029.266.084.337.057.07.175.106.357.106.183 0 .422-.07.717-.211a4.82 4.82 0 00.884-.556c.295-.232.569-.484.821-.758.253-.273.436-.55.548-.83l1.599-4.057c.112-.281.253-.507.422-.683.167-.175.394-.263.673-.263.141 0 .211.057.211.167 0 .042-.017.13-.051.262a4.792 4.792 0 01-.179.515l-1.726 4.709c-.323.898-.485 1.367-.485 1.409 0 .195.104.294.316.294.195 0 .444-.07.747-.21a5.686 5.686 0 001.747-1.282 2.67 2.67 0 00.557-.862l1.58-4.058c.099-.24.167-.391.211-.463a.736.736 0 01.211-.21c.295-.183.527-.274.694-.274.154 0 .232.057.232.167 0 .057-.083.315-.253.778l-1.914 5.13c-.099.266-.173.47-.221.61-.049.14-.074.231-.074.273 0 .167.07.253.211.253.127 0 .285-.053.473-.158.191-.106.375-.224.558-.357.182-.133.347-.252.494-.357.146-.106.249-.157.306-.157.141 0 .211.09.211.273 0 .365-.051.767-.158 1.206a7.624 7.624 0 01-.452 1.33 9.98 9.98 0 01-.706 1.322 6.17 6.17 0 01-.926 1.149 4.403 4.403 0 01-1.116.805 2.735 2.735 0 01-1.253.306 4.09 4.09 0 01-.967-.116 3.893 3.893 0 01-.864-.306 1.898 1.898 0 01-.61-.461.896.896 0 01-.232-.589c0-.195.059-.34.179-.43a.63.63 0 01.39-.138c.07 0 .15.029.241.084a.703.703 0 01.241.273c.24.378.485.663.738.851.253.19.59.285 1.012.285.378 0 .726-.106 1.042-.315.315-.211.606-.48.872-.81.267-.33.498-.686.694-1.072.196-.385.365-.75.506-1.094.141-.343.245-.64.316-.894.07-.252.106-.414.106-.482 0-.042-.013-.063-.042-.063-.041 0-.144.053-.306.158a76.21 76.21 0 01-.557.357 6.358 6.358 0 01-.642.357c-.217.106-.404.157-.558.157-.14 0-.249-.066-.325-.199a.838.838 0 01-.116-.431c0-.182.014-.348.042-.494.029-.148.084-.311.169-.493a8.8 8.8 0 01-1.684 1.124c-.631.33-1.333.493-2.105.493-.253 0-.422-.045-.506-.136a.445.445 0 01-.125-.306c0-.14.024-.283.074-.431.049-.148.129-.327.241-.535-.294.195-.6.381-.916.556a9.468 9.468 0 01-.926.452 6.442 6.442 0 01-.863.294 2.85 2.85 0 01-.685.104c-.196 0-.325-.095-.389-.282a1.89 1.89 0 01-.095-.6c0-.308.104-.73.315-1.261l1.768-4.519c.113-.266.17-.435.17-.505 0-.169-.084-.253-.253-.253a.567.567 0 00-.232.075c-.099.049-.2.098-.306.148-.105.049-.208.098-.307.148a.558.558 0 01-.211.074c-.112 0-.169-.07-.169-.211 0-.125.084-.256.253-.39.169-.132.369-.256.601-.368.232-.112.47-.207.715-.284a2.14 2.14 0 01.601-.116l-.002.002zm12.124 0c.225 0 .337.098.337.294 0 .14-.032.308-.095.505a9.25 9.25 0 01-.242.651l-1.872 4.793c-.128.336-.19.617-.19.84 0 .308.148.464.443.464.294 0 .614-.067.958-.2a4.74 4.74 0 00.989-.525c.315-.217.597-.47.842-.758a3.29 3.29 0 00.557-.894l1.664-4.225a6.82 6.82 0 01.116-.294.976.976 0 01.116-.21.554.554 0 01.157-.138c.076-.049.158-.098.242-.148.083-.049.171-.087.262-.116a.78.78 0 01.221-.041c.154 0 .232.055.232.167 0 .057-.084.315-.253.778l-2 5.298c-.099.265-.173.469-.221.61-.049.14-.074.23-.074.273 0 .168.07.252.211.252a.72.72 0 00.306-.074l.306-.146a2.81 2.81 0 00.264-.148c.077-.05.137-.074.179-.074.141 0 .211.07.211.21 0 .126-.091.26-.274.4-.182.14-.399.265-.652.377a5.36 5.36 0 01-.768.273c-.258.07-.466.107-.622.107-.266 0-.399-.14-.399-.422 0-.195.017-.364.053-.505a4.25 4.25 0 01.158-.484 5.027 5.027 0 01-1.684 1.114c-.744.337-1.445.505-2.105.505-.477 0-.723-.294-.738-.882 0-.35.091-.771.274-1.261l1.685-4.477c.083-.224.125-.365.125-.42 0-.127-.057-.19-.169-.19a.559.559 0 00-.2.063l-.274.127a4.674 4.674 0 00-.253.125.426.426 0 01-.157.063c-.154 0-.232-.078-.232-.231 0-.126.1-.27.306-.431.203-.162.445-.316.726-.464a7.22 7.22 0 01.852-.378c.287-.104.515-.157.684-.157l-.002.004zm8.442 0c.225 0 .337.098.337.294 0 .308-.12.693-.358 1.156.126-.14.337-.294.632-.463a8.93 8.93 0 012.104-.841 4.056 4.056 0 011.012-.148c.35 0 .527.095.527.287 0 .15-.042.336-.126.556.913-.564 1.803-.845 2.673-.845.519 0 .78.294.78.883 0 .322-.107.742-.316 1.26l-1.726 4.415c-.141.35-.211.554-.211.61 0 .166.084.252.253.252a.567.567 0 00.232-.074c.099-.05.199-.099.306-.148.106-.05.207-.099.306-.148a.575.575 0 01.211-.074c.112 0 .167.07.167.21 0 .1-.076.213-.232.348-.154.133-.34.258-.557.378-.216.12-.452.22-.705.305a2.18 2.18 0 01-.673.126c-.323 0-.485-.154-.485-.464 0-.199.112-.605.336-1.222l1.58-4.407c.141-.378.212-.663.212-.845 0-.294-.175-.442-.527-.442-.282 0-.586.058-.917.178-.328.12-.69.319-1.083.602l-2.253 5.647a2.258 2.258 0 01-.411.655.876.876 0 01-.685.294c-.14 0-.211-.057-.211-.167 0-.042.018-.13.054-.264.034-.133.095-.308.178-.518l1.727-4.722c.323-.897.485-1.371.485-1.413 0-.196-.113-.294-.337-.294-.323 0-.806.19-1.453.567-.842.522-1.395 1.119-1.663 1.794l-1.599 4.068a2.301 2.301 0 01-.411.655.875.875 0 01-.684.294c-.141 0-.211-.057-.211-.167 0-.042.017-.13.051-.264.034-.133.095-.306.179-.515l1.726-4.708c.266-.701.399-1.107.399-1.22 0-.127-.057-.19-.167-.19a.43.43 0 00-.2.063l-.232.128c-.078.041-.15.083-.22.125a.367.367 0 01-.169.063c-.154 0-.232-.078-.232-.232 0-.099.099-.228.294-.39.196-.16.432-.318.706-.472a6.33 6.33 0 01.852-.399c.294-.112.54-.167.737-.167l-.002.01zm9.535 6.138c.128 1.122.694 1.682 1.706 1.682.926 0 1.719-.307 2.379-.924.224-.224.365-.336.422-.336.154 0 .232.083.232.252 0 .125-.092.281-.274.463-.801.828-1.831 1.24-3.094 1.24-.884 0-1.555-.252-2.009-.757-.457-.505-.685-1.198-.685-2.081 0-.688.133-1.37.399-2.049a6.45 6.45 0 011.084-1.828c.457-.54.979-.974 1.569-1.303a3.768 3.768 0 011.873-.494c1.277 0 1.916.576 1.916 1.724 0 .56-.158 1.104-.473 1.63a5.28 5.28 0 01-1.253 1.408 6.602 6.602 0 01-1.768.999 5.61 5.61 0 01-2.022.378l-.002-.004zm-.062-.568c.589 0 1.15-.087 1.684-.264a4.609 4.609 0 001.411-.736c.407-.315.734-.69.979-1.124.246-.435.369-.92.369-1.45 0-.87-.336-1.303-1.009-1.303a2.47 2.47 0 00-1.432.43c-.42.287-.78.66-1.074 1.115-.295.456-.523.96-.685 1.513a5.814 5.814 0 00-.241 1.63v.19h-.002z" fill="url(#paint3_linear_65_15)"/><defs><linearGradient id="paint0_linear_65_15" x1="181.541" y1="44.499" x2="64.966" y2="41.873" gradientUnits="userSpaceOnUse"><stop stop-color="#A3A3A3"/><stop offset=".479" stop-color="#fff"/><stop offset="1" stop-color="#AFAFAF"/></linearGradient><linearGradient id="paint1_linear_65_15" x1="58.386" y1="45.746" x2="6.154" y2="45.197" gradientUnits="userSpaceOnUse"><stop stop-color="#A3A3A3"/><stop offset=".479" stop-color="#fff"/><stop offset="1" stop-color="#AFAFAF"/></linearGradient><linearGradient id="paint2_linear_65_15" x1="181.217" y1="41.709" x2="93.037" y2="35.468" gradientUnits="userSpaceOnUse"><stop stop-color="#A3A3A3"/><stop offset=".479" stop-color="#fff"/><stop offset="1" stop-color="#AFAFAF"/></linearGradient><linearGradient id="paint3_linear_65_15" x1="220.913" y1="42.733" x2="186.543" y2="41.355" gradientUnits="userSpaceOnUse"><stop stop-color="#A3A3A3"/><stop offset=".479" stop-color="#fff"/><stop offset="1" stop-color="#AFAFAF"/></linearGradient></defs></svg>