<svg width="18" height="17" fill="none" xmlns="http://www.w3.org/2000/svg"><path d="M0 4.53c0 .696.276 1.46.626 2.271.35.811.801 1.575 1.152 2.154a19.924 19.924 0 003.582 4.286c1.402 1.25 3.056 2.293 4.908 2.919 1.078.393 2.155.834 3.357.834.6 0 1.453-.209 2.229-.51.751-.301 1.427-.765 1.678-1.32.1-.209.225-.487.3-.812a3.7 3.7 0 00.125-.81c0-.116 0-.232-.025-.255-.075-.14-.25-.256-.45-.371-.452-.208-.527-.278-1.203-.649-.701-.37-1.427-.788-2.054-1.089-.3-.162-.5-.232-.576-.232-.4 0-.902.51-1.327 1.066-.451.556-.952 1.066-1.303 1.066-.175 0-.35-.07-.551-.185-.2-.116-.4-.208-.526-.278-2.204-1.159-3.681-2.525-4.933-4.54-.15-.232-.501-.719-.501-.974 0-.3.451-.648.902-1.019.425-.348.876-.764.876-1.274 0-.07-.05-.278-.15-.58-.226-.602-.526-1.296-.777-1.968-.125-.325-.225-.556-.25-.672a.735.735 0 01-.1-.278c-.026-.115-.076-.208-.101-.3a1.01 1.01 0 00-.325-.464 3.19 3.19 0 00-.727-.14c-.3 0-.651-.022-.801-.022-.075 0-.175 0-.276.023h-.325C1.653.73 1.076 1.38.651 2.144c-.4.765-.652 1.622-.652 2.386H0z" fill="#BAB391"/></svg>