<svg width="302" height="239" fill="none" xmlns="http://www.w3.org/2000/svg"><path d="M129.6.6l-46.2 168-15.4-63c20.067 0 36.4 5.833 49 17.5 12.6 11.667 18.9 27.767 18.9 48.3 0 20.067-6.533 36.4-19.6 49-12.6 12.133-28.467 18.2-47.6 18.2-19.6 0-35.933-6.067-49-18.2C7.1 207.8.8 191.467.8 171.4c0-6.067.467-11.9 1.4-17.5.933-6.067 2.8-13.067 5.6-21s6.767-18.433 11.9-31.5L60.3.6h69.3zm165.2 0l-46.2 168-15.4-63c20.067 0 36.4 5.833 49 17.5 12.6 11.667 18.9 27.767 18.9 48.3 0 20.067-6.533 36.4-19.6 49-12.6 12.133-28.467 18.2-47.6 18.2-19.6 0-35.933-6.067-49-18.2-12.6-12.6-18.9-28.933-18.9-49 0-6.067.467-11.9 1.4-17.5.933-6.067 2.8-13.067 5.6-21s6.767-18.433 11.9-31.5L225.5.6h69.3z" fill="#ECECEC"/></svg>