<svg width="302" height="239" fill="none" xmlns="http://www.w3.org/2000/svg"><path d="M172.4 238.4l46.2-168 15.4 63c-20.067 0-36.4-5.833-49-17.5-12.6-11.667-18.9-27.767-18.9-48.3 0-20.067 6.533-36.4 19.6-49C198.3 6.467 214.167.4 233.3.4c19.6 0 35.933 6.067 49 18.2 12.6 12.6 18.9 28.933 18.9 49 0 6.067-.467 11.9-1.4 17.5-.933 6.067-2.8 13.067-5.6 21s-6.767 18.433-11.9 31.5l-40.6 100.8h-69.3zm-165.2 0l46.2-168 15.4 63c-20.067 0-36.4-5.833-49-17.5C7.2 104.233.9 88.133.9 67.6c0-20.067 6.533-36.4 19.6-49C33.1 6.467 48.967.4 68.1.4c19.6 0 35.933 6.067 49 18.2 12.6 12.6 18.9 28.933 18.9 49 0 6.067-.467 11.9-1.4 17.5-.933 6.067-2.8 13.067-5.6 21s-6.767 18.433-11.9 31.5L76.5 238.4H7.2z" fill="#ECECEC"/></svg>