<svg width="109" height="86" fill="none" xmlns="http://www.w3.org/2000/svg"><path d="M62.203 85.976l16.5-60 5.5 22.5c-7.167 0-13-2.084-17.5-6.25-4.5-4.167-6.75-9.917-6.75-17.25 0-7.167 2.333-13 7-17.5 4.5-4.334 10.166-6.5 17-6.5 7 0 12.833 2.166 17.5 6.5 4.5 4.5 6.75 10.333 6.75 17.5 0 2.166-.167 4.25-.5 6.25-.333 2.166-1 4.666-2 7.5-1 2.833-2.417 6.583-4.25 11.25l-14.5 36h-24.75zm-59 0l16.5-60 5.5 22.5c-7.167 0-13-2.084-17.5-6.25-4.5-4.167-6.75-9.917-6.75-17.25 0-7.167 2.333-13 7-17.5 4.5-4.334 10.166-6.5 17-6.5 7 0 12.833 2.166 17.5 6.5 4.5 4.5 6.75 10.333 6.75 17.5 0 2.166-.167 4.25-.5 6.25-.334 2.166-1 4.666-2 7.5-1 2.833-2.417 6.583-4.25 11.25l-14.5 36H3.203z" fill="#4F73C8" fill-opacity=".2"/></svg>