<svg width="24" height="24" fill="none" xmlns="http://www.w3.org/2000/svg"><path fill-rule="evenodd" clip-rule="evenodd" d="M18.688 16.82c-.277.784-1.378 1.432-2.255 1.622-.601.127-1.385.228-4.025-.866-2.966-1.228-7.083-5.605-7.083-8.517 0-1.483.854-3.209 2.35-3.209.718 0 .877.014 1.114.582.277.669.952 2.317 1.033 2.486.332.693-.338 1.098-.824 1.702-.155.181-.331.378-.135.716.196.33.871 1.432 1.864 2.315 1.282 1.143 2.322 1.508 2.694 1.663.277.115.608.088.81-.128.256-.277.575-.737.899-1.19.228-.324.519-.364.823-.25.206.072 2.82 1.286 2.93 1.48.082.141.082.81-.195 1.594zM12.002.596h-.006C5.662.596.511 5.749.511 12.086c0 2.511.81 4.842 2.187 6.733l-1.431 4.27 4.415-1.412a11.4 11.4 0 006.32 1.898c6.334 0 11.487-5.154 11.487-11.49S18.336.595 12.002.595z" fill="#1C1C1E"/></svg>