<svg width="42" height="42" fill="none" xmlns="http://www.w3.org/2000/svg"><path fill-rule="evenodd" clip-rule="evenodd" d="M33.038 29.523c-.498 1.41-2.48 2.578-4.06 2.92-1.081.229-2.491.41-7.244-1.56-5.338-2.21-12.75-10.088-12.75-15.33 0-2.669 1.539-5.776 4.23-5.776 1.294 0 1.58.025 2.006 1.047.498 1.204 1.714 4.17 1.859 4.475.598 1.247-.608 1.977-1.483 3.063-.28.327-.596.68-.242 1.289.352.596 1.568 2.578 3.355 4.168 2.308 2.057 4.18 2.713 4.85 2.992.498.207 1.093.16 1.457-.23.461-.498 1.034-1.326 1.617-2.14.412-.584.935-.657 1.483-.45.37.128 5.075 2.313 5.274 2.663.147.254.147 1.458-.352 2.869zM21.004.319h-.01C9.592.32.319 9.595.319 21c0 4.523 1.458 8.719 3.938 12.122L1.68 40.805l7.948-2.54a20.52 20.52 0 0011.376 3.416c11.401 0 20.677-9.276 20.677-20.681C41.68 9.595 32.405.32 21.004.32z" fill="#fff"/></svg>